<svg width="92" height="25" xmlns="http://www.w3.org/2000/svg"><g fill="#0B74DE" fill-rule="nonzero"><path d="M34.3833 20.325V4.5h3.45v6.5417L43.0667 4.5h4.0083l-5.3 6.1833 5.8333 9.6417H43.75l-4.2083-6.9917-1.6667 1.95V20.35z"/><path d="M47.3667 24.275l.7083-2.6083c.1583.0416.4333.1083.8333.1833a6.1667 6.1667 0 0 0 1.325.125c.313.0144.623-.0639.8917-.225a1.5333 1.5333 0 0 0 .5417-.7667l.2166-.5583-4.3333-11.5h3.5083l2.5 7.4 2.5-7.4H59.35l-4.725 12.6a8.425 8.425 0 0 1-.6417 1.3167 4.4 4.4 0 0 1-.8333 1c-.3241.28-.701.4925-1.1083.625a4.4 4.4 0 0 1-1.475.2166 11.5833 11.5833 0 0 1-2.0167-.1416c-.4917-.0917-.8833-.1834-1.1833-.2667zM61.2583 20.325v-11.4h3.4v1.7833a4.9167 4.9167 0 0 1 .6084-.6833 5.4583 5.4583 0 0 1 .8333-.65 4.4667 4.4667 0 0 1 1.025-.4833A3.65 3.65 0 0 1 68.3583 8.7a3.55 3.55 0 0 1 2.1334.5333 2.5 2.5 0 0 1 .95 1.475c.175-.2083.3833-.4333.6166-.675.2503-.2522.53-.4732.8334-.6583a4.7 4.7 0 0 1 1.0333-.4833A3.6667 3.6667 0 0 1 75.1667 8.7a3.9333 3.9333 0 0 1 1.4583.25 2.825 2.825 0 0 1 1.0333.725c.2784.3213.4832.6996.6 1.1083.1358.454.2004.9263.1917 1.4v8.1417h-3.4167v-7.2417c.0233-.406-.06-.811-.2416-1.175a1.0667 1.0667 0 0 0-.9834-.3916 2.1917 2.1917 0 0 0-1.1583.325 7.425 7.425 0 0 0-1.0917.8333v7.6667h-3.4v-7.2584c.0233-.406-.06-.811-.2416-1.175a1.075 1.075 0 0 0-.9834-.3916 2.225 2.225 0 0 0-1.175.325 7.5 7.5 0 0 0-1.1.8333v7.6667l-3.4-.0167zM80.825 17.4083a3.4583 3.4583 0 0 1 1.6667-3.0666 12.0083 12.0083 0 0 1 5.4166-1.4167v-.275a1.4 1.4 0 0 0-.3416-1 1.5333 1.5333 0 0 0-1.1667-.375 5.125 5.125 0 0 0-2 .3917 7.275 7.275 0 0 0-1.6667 1.025l-1.4416-1.975a8.5 8.5 0 0 1 .975-.7167 7.6167 7.6167 0 0 1 1.2166-.65 7.9333 7.9333 0 0 1 1.5334-.4583 10.2333 10.2333 0 0 1 1.9083-.1667 4.275 4.275 0 0 1 3.3333 1.1333 4.85 4.85 0 0 1 1.0167 3.3334v4.3833c-.007.5563.0152 1.1127.0667 1.6667.0338.3734.1179.7407.25 1.0916h-3.3834c-.0666-.25-.125-.5-.175-.775a4.2917 4.2917 0 0 1-.0833-.9A5.3833 5.3833 0 0 1 86.2333 20a4.8083 4.8083 0 0 1-2.2.475 3.6333 3.6333 0 0 1-1.2-.1917 3.1417 3.1417 0 0 1-1.025-.5916 2.6917 2.6917 0 0 1-.6916-.975 3.2417 3.2417 0 0 1-.2917-1.3084zm3.3333-.5916a1 1 0 0 0 .3417.8333c.2607.1892.5783.2833.9.2667a3.8333 3.8333 0 0 0 1.525-.275 3.2083 3.2083 0 0 0 1.0417-.7167v-2.1083a7.975 7.975 0 0 0-2.9167.7083 1.4833 1.4833 0 0 0-.9083 1.2917h.0166zM0 5v9.6a4.575 4.575 0 0 1 2.0833-.5h2.0834a11.95 11.95 0 0 0 7.6166-2.5c-.55-.5-1.0916-1-1.6166-1.5C7.5 7.6083 4.775 5.2417 0 5z"/><path d="M25.5083 5.1167c-4.675.225-7.175 2.5666-9.7666 5.0416C12.9 12.8583 9.9083 15.65 4.125 15.65H2.0833a2.0583 2.0583 0 0 0-1.8166 1.0917 2.1167 2.1167 0 0 0-.2667.975v2.6166h25.5l.0083-15.2166zM12.2583 4.1667C10.0833 2.075 7.9 0 3.55 0v4.1667a13.8 13.8 0 0 1 5 2.6916 13.275 13.275 0 0 0 3.7083-2.6916z"/><path d="M21.2833.7167c-3.6166.2083-5.525 2.0333-7.5 3.9583A18.0417 18.0417 0 0 1 9.775 7.8167c.4583.4166.9167.8333 1.3583 1.275.4417.4416 1.1584 1.0916 1.7584 1.6166.6166-.5333 1.2166-1.1 1.825-1.6666 1.8833-1.7917 3.825-3.6 6.6083-4.6334L21.2833.7167z"/></g></svg>